<?xml version="1.0" encoding="utf-8"?>
<!-- Generator: Adobe Illustrator 26.2.1, SVG Export Plug-In . SVG Version: 6.00 Build 0)  -->
<svg version="1.1" id="Camada_1" xmlns="http://www.w3.org/2000/svg" xmlns:xlink="http://www.w3.org/1999/xlink" x="0px" y="0px"
	 viewBox="0 0 100 100" style="enable-background:new 0 0 100 100;" xml:space="preserve">
<style type="text/css">
	.st0{fill:#FFFFFF;}
	.st1{fill:#AD8000;}
</style>
<path class="st0" d="M85,100H15c-8.3,0-15-6.7-15-15V15C0,6.7,6.7,0,15,0h70c8.3,0,15,6.7,15,15v70C100,93.3,93.3,100,85,100z"/>
<g>
	<g>
		<path class="st1" d="M60.5,30.8c9.1-1.2,8.6-13.6-0.5-14.1c-3.6-0.2-7,2.7-7.5,6.3C51.9,27.3,56.1,31.3,60.5,30.8z"/>
		<path class="st1" d="M82.1,29.6c-0.5-2.8-3.5-3.5-5.2-2.3c-1.3,0.9-2,2.1-2.9,3.2c-1.4,1.5-3,3-5,3.8c-3.9,1.9-8.6,0.8-12.3-1.1
			c-0.7-0.4-5.6-3.1-6.6-3.5c-1.4-0.7-2.9-1.3-4.4-1.8c-9.1-3-19.1,0.6-24.9,8.2c-0.6,0.8-1.8,2.3-2,3.7c-0.2,1.5,1.4,2.8,2.4,3.2
			c2.5,1.4,4.6,0,5.9-2.2c1.8-2.3,4.5-4.9,7.2-6.2c1.5-0.7,5.9-0.8,7.3,0.5c0.2,0.2,0.4,0.5,0.5,0.9c0,0.3,0,0.6-0.1,0.9
			c-1.4,2.8-9.1,18.1-10.2,19.4c-0.6,1.1-1.4,2-2.2,3c-2.1,2.5-4.9,4.4-8.1,4.1c-1.8-0.2-4.1-2.1-5.8-2.5c-3.2-1-5.2,1.2-5.5,4.6
			c-0.4,4.6,8.9,7.1,11.7,7.1c6.7,0.4,12.5-3.8,16.7-8.7c5.7,1.3,11.2,5.1,15.8,8.8c1.8,3.6,3.7,7.2,5.4,10.8
			c0.9,1.6,1.4,3.6,3.1,4.6c2.4,1.4,6.2,0,6.8-2.8c0.7-2.1-2-5.6-2.9-7.7c-1.6-3.2-3.2-6.5-4.9-9.7c-2.8-3.1-6.5-5.3-10-7.6
			c-0.8-0.5-0.8-0.7-1.6-1.1c-0.6-0.4-0.9-1.1-0.5-1.8c1.8-3.6,7.3-15,7.4-15.2c0.1-0.2,0.2-0.2,0.3-0.2c2.4-0.1,4.7,2.2,12.1,0
			c1.7-0.4,6-3.1,7.1-3.9C79.1,36,82.7,32.7,82.1,29.6z"/>
	</g>
	<path class="st1" d="M83.7,11.4l2,3.5c0,0.1,0.1,0.1,0.2,0.1l3.9,0.8c0.2,0,0.3,0.3,0.1,0.4l-2.7,2.9c-0.1,0.1-0.1,0.1-0.1,0.2
		l0.5,4c0,0.2-0.2,0.4-0.4,0.3L83.5,22c-0.1,0-0.1,0-0.2,0l-3.6,1.7c-0.2,0.1-0.4-0.1-0.4-0.3l0.5-4c0-0.1,0-0.2-0.1-0.2L77,16.3
		c-0.1-0.1-0.1-0.4,0.1-0.4l3.9-0.8c0.1,0,0.1-0.1,0.2-0.1l2-3.5C83.3,11.3,83.6,11.3,83.7,11.4z"/>
</g>
</svg>
