<?xml version="1.0" encoding="utf-8"?>
<!-- Generator: Adobe Illustrator 26.2.1, SVG Export Plug-In . SVG Version: 6.00 Build 0)  -->
<svg version="1.1" id="Camada_1" xmlns="http://www.w3.org/2000/svg" xmlns:xlink="http://www.w3.org/1999/xlink" x="0px" y="0px"
	 viewBox="0 0 149.9 40" style="enable-background:new 0 0 149.9 40;" xml:space="preserve">
<style type="text/css">
	.st0{fill:#011633;}
	.st1{display:none;fill:#4F5BEE;}
	.st2{fill:#AD8000;}
</style>
<path class="st0" d="M59.5,16.6c0.8-0.6,1.3-0.6,2-0.5c1.9,0.3,1.8,2,1.4,3.3c-0.1,0.5-0.3,1.1-0.3,1.6c-0.1,2.1-0.1,6.4,0.7,5.6
	c2.7-3.5,4.1-7.8,5.4-11.9c0.1-0.4,0.4-0.7,0.7-0.9c0.8-0.4,2-0.3,2.6,0c0.4,0.1,0.6,0.3,0.7,0.8c0,3.4-0.2,6.9-0.1,10.3
	c0,1,0.1,2.2,0,3.2c-0.1,0.8-0.7,1.4-1.5,1.5c-2.6,0.3-2.2-3.6-2.4-5.7c0-0.2-0.1-0.2-0.3,0c-0.1,0.1-0.4,0.7-0.5,0.8
	c-0.9,1.7-1.8,3.9-3.7,4.4c-2.4,0.9-4.9-0.7-5.6-3C58.2,24,57.5,18.3,59.5,16.6z M107,24.4c0.1-0.6,0.7,0,0.7,0.3
	c0.2,0.6,1.8,2.9,2.4,3.5c2.5,2.4,6.4,3.4,7.5-0.3c0.1-0.3,0.5-2,0.5-2.3c0.1-1.2,0.3-6.7,0.1-8.6c-0.3-2.3-0.6-2.4-2-2.3
	c-0.5-0.1-1.4-0.1-1.2,2.2c0.1,1.4,0.2,6.4,0.1,7.4c-0.1,1-0.4,2.1-0.7,3.1c-0.5,1.8-3.5-5-3.8-5.6c-1.4-2.8-2-8.5-6.4-7.1
	c-0.9,0.1-0.7,1.4-0.8,2c-0.4,4.4-0.9,8.9,0.5,13.1c0.6,1,1.8,1,2.8,0.9c0.8,0,0.6-0.9,0.6-1.5C107.2,27.6,106.8,26.1,107,24.4z
	 M136.2,20.6c0-3.9-4.5-5.8-7.5-6c-1-0.1-2.8-0.3-5.8,0.2c-0.4,0.1-2.3,0.5-2.7,0.7c-0.7,0.3-0.9,1-0.7,1.4c0.3,0.4,1.4,0.1,1.5,0.6
	c0.1,1.4,0,2.8,0.1,4.1c-0.1,2.6,0.1,9.3,3.9,8.7C129.3,29.1,136.1,25.6,136.2,20.6L136.2,20.6z M128.5,16.5c2,0.3,4,2.2,3.7,4.2
	c-0.3,1.1-0.7,2.2-1.4,3.1c-0.3,0.7-4.9,4.5-5.2,3.4c-0.2-2.3-0.3-4.7-0.2-7c0-0.7,0-1.4,0.1-2.2c0.1-1.3-0.4-1.5,1.6-1.6
	C127.6,16.4,128,16.5,128.5,16.5z M95,25.7c2.6,0,2.5,0,2.8,2.1c0.1,0.3,0.3,1.5,0.5,1.7c0.9,0.8,3.2,0.6,3.2-0.7
	c-0.3-3.1-1.2-12.3-4.3-13.3c-1.3-0.1-3.2-0.5-4,0.9c-1.6,2.5-2.6,5.2-3.8,7.9c-0.4,0.9-1.7,4.1-1.2,4.8c0.5,0.6,1.9,0.9,2.7,0.5
	c0.4-0.2,0.5-0.3,0.6-0.9c0.1-0.3,0.1-0.5,0.2-1C92.1,25.7,92,25.7,95,25.7z M93.7,24.1c-0.7,0-0.4-0.5,0.5-2.6
	c0.3-0.6,0.7-1.6,1-2.2c0.1-0.1,0.2-0.5,0.3-0.5s0.3,0.5,0.3,0.5c0.1,0.4,0.4,1.4,0.6,2.2c0.4,1.6,1,2.6,0,2.6
	C96,24.1,94.2,24.1,93.7,24.1z M41.6,15c-0.3,0.3-0.3,0.9,0,1.2c0.7,0.7,2.1,0.3,3,0.4c0.3,0,1.9-0.2,1.8,0.5c0.1,3,0.1,5.8,0.3,8.7
	c0.2,3.1-0.1,4.2,2.1,4.2c2.4,0,2-1,2-4.2c0-1.4-0.4-9.6,0.8-9.5c1.8-0.1,3.5-0.1,5.2-0.2c0.3,0,0.5-0.1,0.7-0.3
	c0.4-0.5,0.1-1-0.5-1.2c-1-0.3-4.7-0.3-8.2-0.2C45.6,14.4,42.3,14.5,41.6,15z M80.7,14.5c-1.4,0.3-2.5,1.2-3.5,2.2
	c-4.9,3.9-2,5.8,2.8,7.1c1.9,0.5,5,0.3,3.3,3c-0.7,0.6-1.6,0.9-2.5,1.1c-0.9,0.2-1.7,0.5-2.6,0.7c-0.5,0.2-2.6,0.4-2,1.2
	c1.6,0.9,7.6-0.9,9.4-1.8c5.2-3.9-3.2-5.2-6-6.2c-2.4-1.3,0.7-3.7,2-4.6c0.9-0.8,2.5-0.9,3.1-1.8C84.9,13.7,81.7,14.1,80.7,14.5z
	 M142.2,17.9c0.4-1.8,0.3-2.8-1.8-3.1c-1.8-0.3-2.5,0.2-2.8,1.4c-0.3,1.7-0.1,3.9-0.1,5.6c0,2.9,0.3,6,1.4,7.8
	c0.5,0.8,2.3,1,3.1,0.3c0.4-0.2,0.2-0.9,0.2-1.1c-0.1-0.7-0.4-2.5-0.4-4.6C141.8,21.8,142.1,19,142.2,17.9z"/>
<path class="st1" d="M34.9,38.1H9.6c-3,0-5.4-2.4-5.4-5.4V7.3c0-3,2.4-5.4,5.4-5.4h25.3c3,0,5.4,2.4,5.4,5.4v25.3
	C40.3,35.7,37.9,38.1,34.9,38.1z"/>
<g>
	<g>
		<path class="st2" d="M26,13c3.3-0.4,3.1-4.9-0.2-5.1c-1.3-0.1-2.5,1-2.7,2.3C22.9,11.8,24.5,13.2,26,13z"/>
		<path class="st2" d="M33.8,12.6c-0.2-1-1.3-1.3-1.9-0.8c-0.5,0.3-0.7,0.8-1,1.2c-0.5,0.6-1.1,1.1-1.8,1.4
			c-1.4,0.7-3.1,0.3-4.5-0.4c-0.3-0.1-2-1.1-2.4-1.3c-0.5-0.3-1.1-0.5-1.6-0.6c-3.3-1.1-6.9,0.2-9,3c-0.2,0.3-0.7,0.8-0.7,1.3
			c-0.1,0.6,0.5,1,0.9,1.2c0.9,0.5,1.7,0,2.2-0.8c0.6-0.8,1.6-1.8,2.6-2.2c0.5-0.3,2.1-0.3,2.6,0.2c0.1,0.1,0.1,0.2,0.2,0.3
			c0,0.1,0,0.2-0.1,0.3c-0.5,1-3.3,6.5-3.7,7c-0.2,0.4-0.5,0.7-0.8,1.1c-0.7,0.9-1.8,1.6-2.9,1.5c-0.6-0.1-1.5-0.7-2.1-0.9
			c-1.2-0.4-1.9,0.4-2,1.6c-0.2,1.7,3.2,2.6,4.2,2.6c2.4,0.1,4.5-1.4,6-3.1c2.1,0.5,4,1.8,5.7,3.2c0.7,1.3,1.3,2.6,2,3.9
			c0.3,0.6,0.5,1.3,1.1,1.7c0.9,0.5,2.2,0,2.5-1c0.2-0.8-0.7-2-1-2.8c-0.6-1.2-1.2-2.3-1.8-3.5c-1-1.1-2.4-1.9-3.6-2.7
			c-0.3-0.2-0.3-0.2-0.6-0.4c-0.2-0.1-0.3-0.4-0.2-0.6c0.6-1.3,2.6-5.4,2.7-5.5c0-0.1,0.1-0.1,0.1-0.1c0.9,0,1.7,0.8,4.4,0
			c0.6-0.1,2.2-1.1,2.5-1.4C32.8,14.9,34.1,13.7,33.8,12.6z"/>
	</g>
	<path class="st2" d="M34.4,6.1l0.7,1.3c0,0,0,0,0.1,0l1.4,0.3c0.1,0,0.1,0.1,0.1,0.2l-1,1.1c0,0,0,0,0,0.1l0.2,1.4
		c0,0.1-0.1,0.1-0.1,0.1L34.5,10h-0.1L33,10.5c-0.1,0-0.1,0-0.1-0.1L33,8.9V8.8l-1-1.1c0-0.1,0-0.1,0.1-0.2l1.4-0.3c0,0,0,0,0.1,0
		l0.7-1.3C34.3,6,34.4,6,34.4,6.1z"/>
</g>
</svg>
