<?xml version="1.0" encoding="utf-8"?>
<!-- Generator: Adobe Illustrator 26.2.1, SVG Export Plug-In . SVG Version: 6.00 Build 0)  -->
<svg version="1.1" id="Camada_1" xmlns="http://www.w3.org/2000/svg" xmlns:xlink="http://www.w3.org/1999/xlink" x="0px" y="0px"
	 viewBox="0 0 166.9 40" style="enable-background:new 0 0 166.9 40;" xml:space="preserve">
<style type="text/css">
	.st0{fill:#FFFFFF;}
	.st1{display:none;fill:#FFFFFF;}
</style>
<path class="st0" d="M67.6,13.5c0.9-0.7,1.5-0.7,2.2-0.6c2.2,0.3,2.1,2.2,1.6,3.8c-0.1,0.6-0.3,1.3-0.3,1.9c0,2.3-0.1,7.3,0.9,6.4
	c3.1-3.9,4.6-8.9,6.2-13.6c0.1-0.4,0.4-0.7,0.8-1c0.9-0.4,2.2-0.4,3,0c0.4,0.1,0.7,0.3,0.7,0.9c0,3.9-0.2,7.8-0.1,11.7
	c0,1.2,0.1,2.5,0,3.7c-0.1,0.9-0.8,1.6-1.7,1.7c-2.9,0.4-2.5-4.1-2.8-6.5c0-0.2-0.1-0.2-0.3,0c-0.1,0.1-0.4,0.7-0.5,0.9
	c-1,1.9-2.1,4.4-4.2,5c-2.7,1-5.5-0.7-6.4-3.4C66.1,21.9,65.3,15.4,67.6,13.5z M121.6,22.4c0.1-0.7,0.7,0,0.7,0.3
	c0.2,0.7,2.1,3.3,2.8,3.9c2.8,2.8,7.3,3.9,8.6-0.4c0.1-0.4,0.5-2.2,0.5-2.6c0.1-1.3,0.4-7.6,0.1-9.8c-0.3-2.6-0.7-2.8-2.3-2.6
	c-0.5-0.1-1.6-0.1-1.3,2.5c0.1,1.6,0.2,7.2,0.1,8.4c-0.1,1.2-0.4,2.4-0.8,3.6c-0.6,2.1-3.9-5.7-4.3-6.3c-1.6-3.2-2.2-9.6-7.2-8
	c-1,0.1-0.7,1.6-0.9,2.3c-0.4,5-1,10.1,0.6,14.9c0.7,1.1,2,1.1,3.1,1c0.9,0,0.7-1,0.7-1.7C121.7,26.1,121.3,24.3,121.6,22.4z
	 M154.7,18c0-4.4-5.1-6.6-8.5-6.9c-1.2-0.1-3.1-0.4-6.6,0.2c-0.4,0.1-2.6,0.6-3.1,0.7c-0.8,0.3-1,1.1-0.7,1.6
	c0.4,0.4,1.6,0.1,1.7,0.7c0.1,1.6,0,3.1,0.1,4.6c-0.1,2.9,0.1,10.6,4.4,9.9C146.8,27.8,154.6,23.8,154.7,18L154.7,18z M145.9,13.4
	c2.3,0.3,4.5,2.5,4.2,4.8c-0.4,1.3-0.7,2.5-1.6,3.5c-0.4,0.7-5.6,5.1-6,3.9c-0.2-2.6-0.3-5.3-0.2-7.9c0-0.8,0-1.6,0.1-2.5
	c0.1-1.5-0.4-1.7,1.8-1.8C145,13.3,145.3,13.4,145.9,13.4z M107.9,23.9c3,0,2.8,0,3.1,2.4c0.1,0.4,0.3,1.7,0.5,1.9
	c1,0.9,3.7,0.7,3.7-0.7c-0.3-3.5-1.3-13.9-4.9-15.1c-1.5-0.1-3.7-0.6-4.5,1c-1.9,2.8-3,6-4.3,9c-0.4,1-1.9,4.6-1.3,5.4
	c0.5,0.7,2.2,1,3.1,0.6c0.4-0.2,0.5-0.4,0.7-1c0.1-0.3,0.1-0.6,0.2-1.1C104.6,23.9,104.5,23.9,107.9,23.9z M106.5,22.1
	c-0.8,0-0.4-0.5,0.6-2.9c0.3-0.7,0.8-1.8,1.2-2.5c0.1-0.1,0.2-0.5,0.4-0.5c0.1,0,0.3,0.5,0.4,0.5c0.1,0.4,0.4,1.6,0.7,2.5
	c0.4,1.8,1.2,2.9,0,2.9C109.1,22.1,107,22.1,106.5,22.1z M47.3,11.8c-0.4,0.4-0.4,1,0,1.3c0.8,0.7,2.4,0.4,3.4,0.4
	c0.4,0,2.2-0.2,2.1,0.5c0.1,3.4,0.1,6.6,0.4,9.8c0.2,3.5-0.1,4.8,2.4,4.8c2.8,0,2.3-1.2,2.3-4.8c0-1.6-0.4-11,0.9-10.8
	c2-0.1,3.9-0.1,6-0.2c0.3,0,0.6-0.1,0.8-0.4c0.4-0.5,0.1-1.2-0.5-1.3c-1.2-0.3-5.3-0.3-9.3-0.2C51.8,11,48,11.1,47.3,11.8z
	 M91.6,11.1c-1.6,0.4-2.8,1.4-3.9,2.5c-5.6,4.4-2.3,6.6,3.1,8.1c2.2,0.6,5.7,0.3,3.8,3.4c-0.7,0.7-1.9,1-2.8,1.3
	c-1,0.2-1.9,0.6-3,0.7c-0.6,0.2-3,0.4-2.2,1.4c1.9,1,8.6-1,10.7-2c5.9-4.4-3.7-6-6.8-7.1c-2.7-1.5,0.7-4.2,2.2-5.2
	c1-0.9,2.8-1,3.6-2C96.5,10.3,92.8,10.7,91.6,11.1z M161.6,15c0.4-2.1,0.3-3.2-2.1-3.6c-2-0.4-2.8,0.2-3.2,1.6
	c-0.3,1.9-0.1,4.5-0.1,6.3c0,3.3,0.3,6.8,1.6,8.9c0.5,0.9,2.6,1.1,3.5,0.3c0.4-0.2,0.2-1,0.2-1.3c-0.1-0.8-0.4-2.8-0.4-5.2
	C161.1,19.5,161.4,16.3,161.6,15z"/>
<path class="st1" d="M34.9,38.1H9.6c-3,0-5.4-2.4-5.4-5.4V7.3c0-3,2.4-5.4,5.4-5.4h25.3c3,0,5.4,2.4,5.4,5.4v25.3
	C40.3,35.7,37.9,38.1,34.9,38.1z"/>
<g>
	<g>
		<path class="st0" d="M26,13c3.3-0.4,3.1-4.9-0.2-5.1c-1.3-0.1-2.5,1-2.7,2.3C22.9,11.8,24.5,13.2,26,13z"/>
		<path class="st0" d="M33.8,12.6c-0.2-1-1.3-1.3-1.9-0.8c-0.5,0.3-0.7,0.8-1,1.2c-0.5,0.6-1.1,1.1-1.8,1.4
			c-1.4,0.7-3.1,0.3-4.5-0.4c-0.3-0.1-2-1.1-2.4-1.3c-0.5-0.3-1.1-0.5-1.6-0.6c-3.3-1.1-6.9,0.2-9,3c-0.2,0.3-0.7,0.8-0.7,1.3
			c-0.1,0.6,0.5,1,0.9,1.2c0.9,0.5,1.7,0,2.2-0.8c0.6-0.8,1.6-1.8,2.6-2.2c0.5-0.3,2.1-0.3,2.6,0.2c0.1,0.1,0.1,0.2,0.2,0.3
			c0,0.1,0,0.2-0.1,0.3c-0.5,1-3.3,6.5-3.7,7c-0.2,0.4-0.5,0.7-0.8,1.1c-0.7,0.9-1.8,1.6-2.9,1.5c-0.6-0.1-1.5-0.7-2.1-0.9
			c-1.2-0.4-1.9,0.4-2,1.6c-0.2,1.7,3.2,2.6,4.2,2.6c2.4,0.1,4.5-1.4,6-3.1c2.1,0.5,4,1.8,5.7,3.2c0.7,1.3,1.3,2.6,2,3.9
			c0.3,0.6,0.5,1.3,1.1,1.7c0.9,0.5,2.2,0,2.5-1c0.2-0.8-0.7-2-1-2.8c-0.6-1.2-1.2-2.3-1.8-3.5c-1-1.1-2.4-1.9-3.6-2.7
			c-0.3-0.2-0.3-0.2-0.6-0.4c-0.2-0.1-0.3-0.4-0.2-0.6c0.6-1.3,2.6-5.4,2.7-5.5c0-0.1,0.1-0.1,0.1-0.1c0.9,0,1.7,0.8,4.4,0
			c0.6-0.1,2.2-1.1,2.5-1.4C32.8,14.9,34.1,13.7,33.8,12.6z"/>
	</g>
	<path class="st0" d="M34.4,6.1l0.7,1.3c0,0,0,0,0.1,0l1.4,0.3c0.1,0,0.1,0.1,0.1,0.2l-1,1.1c0,0,0,0,0,0.1l0.2,1.4
		c0,0.1-0.1,0.1-0.1,0.1L34.5,10h-0.1L33,10.5c-0.1,0-0.1,0-0.1-0.1L33,8.9V8.8l-1-1.1c0-0.1,0-0.1,0.1-0.2l1.4-0.3c0,0,0,0,0.1,0
		l0.7-1.3C34.3,6,34.4,6,34.4,6.1z"/>
</g>
</svg>
