<?xml version="1.0" encoding="utf-8"?>
<!-- Generator: Adobe Illustrator 26.2.1, SVG Export Plug-In . SVG Version: 6.00 Build 0)  -->
<svg version="1.1" id="Camada_1" xmlns="http://www.w3.org/2000/svg" xmlns:xlink="http://www.w3.org/1999/xlink" x="0px" y="0px"
	 viewBox="0 0 141.7 141.7" style="enable-background:new 0 0 141.7 141.7;" xml:space="preserve">
<g>
	<g>
		<path d="M45.5,59.7c-0.1,9.4-0.2,17.9,2.4,26.6c2,6.9,0.9,14.8,0.8,22.2c0,3.3-2.7,5.4-5.8,4.5c-1.8-0.5-3.9-3.2-4.2-5.1
			c-0.6-4,0.2-8.1-0.1-12.2c-0.3-3.6-1.5-7.1-2.7-12.7c-4.9,8.1-8.7,14.4-12.5,20.7c-1.5,2.4-2.8,4.9-4.5,7.1
			c-1.9,2.6-4.5,3.6-7.3,1.5c-2.6-1.8-3.5-4.2-1.7-7.3c3.4-5.6,6.4-11.5,10.2-16.9c5.2-7.4,6.6-15.2,4.7-25.6
			c-3.3,3.5-6,6.2-8.5,9.1c-2,2.3-4.1,4.4-7.1,2.5c-3.4-2.1-2.7-4.9-0.9-8c5.9-10.1,15-15.2,26.3-15.6c9.1-0.4,16.6-2.8,21.7-10.6
			c0.3-0.5,0.8-0.9,1.3-1.4c2.3-2.3,5.4-3,7.4-0.5c1.1,1.4,1,5.2-0.1,6.5c-3.6,4.2-7.8,8-12.1,11.6C50.8,57.6,48.3,58.3,45.5,59.7z"
			/>
		<path d="M45.3,38.4c0,5.7-4.5,10.3-10,10.2c-5.3-0.1-9.9-5.1-9.7-10.6c0.2-5.2,4.5-9.5,9.6-9.7C40.6,28.1,45.2,32.8,45.3,38.4z"/>
	</g>
	<g>
		<polygon points="135,109.2 135,66.5 106.4,66.5 106.4,80.6 79.9,80.6 79.9,94.9 52.6,94.9 52.6,109.2 		"/>
		<rect x="52.6" y="111.2" width="82.4" height="2.2"/>
	</g>
	<g>
		<polygon points="117.9,48.2 99.8,65.8 97.5,65.9 91.5,70.9 94.5,72 95.5,75 100.6,69.1 100.8,66.9 118.8,49 		"/>
		<path d="M119.2,55.6c-4.4,0-8-3.6-8-8s3.6-8,8-8s8,3.6,8,8S123.7,55.6,119.2,55.6z M119.2,41.3c-3.5,0-6.3,2.8-6.3,6.3
			c0,3.5,2.8,6.3,6.3,6.3s6.3-2.8,6.3-6.3C125.6,44.1,122.7,41.3,119.2,41.3z"/>
		<circle cx="119.2" cy="47.6" r="1.9"/>
		<g>
			<path d="M106.8,45.9c0.8-5.6,5.1-10,10.7-10.7v-3.4c-7.4,0.8-13.3,6.7-14.1,14.1H106.8z"/>
			<path d="M120.9,35.2c5.6,0.8,10,5.1,10.7,10.7h3.4c-0.8-7.4-6.7-13.3-14.1-14.1V35.2z"/>
			<path d="M131.7,49.3c-0.8,5.6-5.1,10-10.7,10.7v3.4c7.4-0.8,13.3-6.7,14.1-14.1H131.7z"/>
			<path d="M117.6,60c-5.6-0.8-10-5.1-10.7-10.7h-3.4c0.8,7.4,6.7,13.3,14.1,14.1V60z"/>
		</g>
	</g>
</g>
</svg>
