<?xml version="1.0" encoding="utf-8"?>
<!-- Generator: Adobe Illustrator 23.0.2, SVG Export Plug-In . SVG Version: 6.00 Build 0)  -->
<svg version="1.1" id="Camada_1" xmlns="http://www.w3.org/2000/svg" xmlns:xlink="http://www.w3.org/1999/xlink" x="0px" y="0px"
	 viewBox="0 0 750 471" style="enable-background:new 0 0 750 471;" xml:space="preserve">
<style type="text/css">
	.st0{fill-rule:evenodd;clip-rule:evenodd;fill:#230000;}
	.st1{fill:#FFFFFF;}
</style>
<path class="st0" d="M40,0h670c22.1,0,40,17.9,40,40v391c0,22.1-17.9,40-40,40H40c-22.1,0-40-17.9-40-40V40C0,17.9,17.9,0,40,0z"/>
<text transform="matrix(1 0 0 1 -136 232.89)" style="font-family:'ArialMT'; font-size:12px;">t</text>
<path class="st1" d="M524.8,259.5H225.2c-2,0-3.5-1.6-3.5-3.5v-20.1c0-2,1.6-3.5,3.5-3.5h150h149.5c2,0,3.5,1.6,3.5,3.5V256
	C528.3,257.9,526.7,259.5,524.8,259.5z M528.3,416.6v-20.1c0-2-1.6-3.5-3.5-3.5H375.3h-150c-2,0-3.5,1.6-3.5,3.5v20.1
	c0,2,1.6,3.5,3.5,3.5h299.5C526.7,420.1,528.3,418.5,528.3,416.6z M503.9,262.4H491c-1.3,0-2.3,0.7-2.3,1.5v62.3v62.4
	c0,0.8,1,1.5,2.3,1.5h12.9c1.3,0,2.3-0.7,2.3-1.5V263.8C506.2,263,505.2,262.4,503.9,262.4z M454.9,262.4H442
	c-1.3,0-2.3,0.7-2.3,1.5v62.3v62.4c0,0.8,1,1.5,2.3,1.5h12.9c1.3,0,2.3-0.7,2.3-1.5V263.8C457.2,263,456.2,262.4,454.9,262.4z
	 M406,262.4h-13c-1.3,0-2.3,0.7-2.3,1.5v62.3v62.4c0,0.8,1,1.5,2.3,1.5h13c1.3,0,2.3-0.7,2.3-1.5V263.8
	C408.2,263,407.2,262.4,406,262.4z M357,262.4h-13c-1.3,0-2.3,0.7-2.3,1.5v62.3v62.4c0,0.8,1,1.5,2.3,1.5h13c1.3,0,2.3-0.7,2.3-1.5
	V263.8C359.2,263,358.2,262.4,357,262.4z M308,262.4h-12.9c-1.3,0-2.3,0.7-2.3,1.5v62.3v62.4c0,0.8,1,1.5,2.3,1.5H308
	c1.3,0,2.3-0.7,2.3-1.5V263.8C310.3,263,309.3,262.4,308,262.4z M259,262.4h-12.9c-1.3,0-2.3,0.7-2.3,1.5v62.3v62.4
	c0,0.8,1,1.5,2.3,1.5H259c1.3,0,2.3-0.7,2.3-1.5V263.8C261.3,263,260.3,262.4,259,262.4z M375.2,50.9l-142.8,178h285.2L375.2,50.9z
	 M375,205.2c-22.7,0-41.2-18.5-41.2-41.2s18.5-41.2,41.2-41.2s41.2,18.5,41.2,41.2S397.7,205.2,375,205.2z M375,130.9
	c-18.3,0-33.1,14.9-33.1,33.1s14.9,33.1,33.1,33.1s33.1-14.9,33.1-33.1S393.3,130.9,375,130.9z M384.3,168.8c0,1.6-0.4,3-1.1,4.2
	s-1.8,2.1-3.2,2.7c-1,0.5-2.2,0.8-3.6,0.9v3h-3.5v-3.1c-1.2-0.2-2.3-0.5-3.3-1c-1.6-0.8-2.9-2.1-4.1-3.7l2.7-3.1
	c1.2,1.7,2.3,2.9,3.4,3.5c0.4,0.2,0.8,0.4,1.3,0.6V165c-1-0.3-1.9-0.7-2.7-1.1c-1.1-0.7-2-1.5-2.6-2.6c-0.6-1-0.9-2.2-0.9-3.6
	c0-1,0.2-2,0.7-2.8c0.4-0.9,1.1-1.6,1.8-2.3c0.8-0.6,1.7-1.1,2.8-1.5c0.7-0.2,1.5-0.4,2.3-0.5V148h3.5v2.8c1,0.2,1.9,0.5,2.8,0.9
	c1.5,0.8,2.6,1.9,3.5,3.3l-2.8,2.7c-0.7-1.2-1.6-2.1-2.6-2.7c-0.3-0.2-0.6-0.3-0.9-0.5v7.6c0.6,0.2,1.1,0.4,1.6,0.6
	c1,0.4,1.9,1,2.6,1.6s1.3,1.3,1.6,2C384.1,167.1,384.3,167.9,384.3,168.8z M371.9,160.1c0.4,0.3,0.9,0.6,1.6,0.9
	c0.3,0.1,0.6,0.2,0.9,0.3v-7.1c-0.5,0.1-1,0.2-1.4,0.3c-0.7,0.3-1.2,0.7-1.6,1.2s-0.6,1.1-0.6,1.8c0,0.5,0.1,1,0.3,1.4
	C371.2,159.4,371.5,159.8,371.9,160.1z M380.4,169.8c0-0.4-0.1-0.8-0.2-1.2s-0.4-0.7-0.7-1c-0.3-0.3-0.7-0.6-1.2-0.9s-1-0.5-1.6-0.7
	c-0.1,0-0.2-0.1-0.3-0.1v7.2c0.5-0.1,1.1-0.2,1.6-0.4c0.7-0.3,1.3-0.7,1.8-1.2S380.4,170.5,380.4,169.8z"/>
</svg>
