<?xml version="1.0" encoding="utf-8"?>
<!-- Generator: Adobe Illustrator 23.0.2, SVG Export Plug-In . SVG Version: 6.00 Build 0)  -->
<svg version="1.1" id="Camada_1" xmlns="http://www.w3.org/2000/svg" xmlns:xlink="http://www.w3.org/1999/xlink" x="0px" y="0px"
	 viewBox="0 0 750 471" style="enable-background:new 0 0 750 471;" xml:space="preserve">
<style type="text/css">
	.st0{fill-rule:evenodd;clip-rule:evenodd;fill:url(#SVGID_1_);}
	.st1{fill:#BA100D;}
	.st2{fill:#FCF4EB;}
</style>
<linearGradient id="SVGID_1_" gradientUnits="userSpaceOnUse" x1="0" y1="235.5" x2="750" y2="235.5">
	<stop  offset="0" style="stop-color:#EF8009"/>
	<stop  offset="1" style="stop-color:#EC6B09"/>
</linearGradient>
<path class="st0" d="M40,0h670c22.1,0,40,17.9,40,40v391c0,22.1-17.9,40-40,40H40c-22.1,0-40-17.9-40-40V40C0,17.9,17.9,0,40,0z"/>
<g>
	<g>
		<path class="st1" d="M467.8,399.1c-10.7,0-21.3-0.4-32,0.1c-7.3,0.4-12.9-5.3-13.2-12.5c-0.4-7.8-0.3-15.7,0-23.5
			c0.2-6.1,5.7-11.2,11.7-11.2c12.5-0.1,25,0.1,37.5-0.1c8.8-0.1,13.7,10.3,12.3,15.9c-2.1,8.5-6.6,12.2-15.5,12.2c-9,0-18,0-27,0
			c-1.1,0-2.7,0.5-3-1c-0.4-1.7-0.6-3.7,0.2-5.4c0.5-1,1.8-0.6,2.7-0.6c8,0,16-0.1,24,0c2.6,0.1,4.3-0.8,6.1-2.6
			c2.4-2.4,2.4-5.3,1.4-7.8c-0.9-2.6-3.2-3.8-6.4-3.8c-8.8,0.2-17.7,0-26.5,0.1c-4.6,0-5.8,1.2-5.8,6c0,6.8-0.1,13.7,0,20.5
			c0,5,1.6,6.6,6.6,6.6c18.3,0,36.7,0,55,0c4.4,0,5.5-1.2,5.6-5.7c0.1-6.2,0-12.3,0-18.5c0-3.5,0.8-6.8,2-10.1
			c1.5-3.9,4.8-5.5,8.5-5.6c9-0.3,18-0.1,27-0.2c2.1,0,2.6,0.9,2.5,2.7c-0.1,0.8-0.1,1.7,0,2.5c0.2,2.2-0.7,2.9-2.9,2.9
			c-6.2-0.1-12.3-0.1-18.5,0c-5.4,0-6.6,1.2-6.7,6.8c-0.1,6.5-0.3,13,0.1,19.5c0.4,7.9-4.9,13.1-12.8,12.9
			C489.8,398.9,478.8,399.1,467.8,399.1z"/>
		<path class="st1" d="M192.5,399.1c-7,0-14-0.2-21,0.1c-6.5,0.2-12.2-5.4-12.1-11.8c0.1-7.8,0.2-15.7,0-23.5
			c-0.2-6.3,5.5-12,12-11.9c11.8,0.2,23.7,0.3,35.5,0c11.3-0.3,16.9,11.2,11.8,21.2c-2.6,5.1-7.5,6.4-12.4,6.7
			c-9.5,0.4-19,0.1-28.5,0.2c-2.1,0-2.4-1-2.5-2.8c-0.1-4.1-0.2-4.2,3.9-4.2c7.8,0,15.7,0,23.5,0c4.2,0,7.6-3.3,7.7-7.4
			c0.1-3.9-3-7.4-7.1-7.5c-8.7-0.2-17.3-0.2-26,0c-4.2,0.1-6.9,3.3-6.9,7.5c0,6.7-0.1,13.3,0,20c0,4.3,2.1,6.4,6.4,6.4
			c11.7,0.1,23.3,0,35,0c1.2,0,2.3,0.1,3.5,0c1.8-0.1,2.3,0.9,2.2,2.5c0,0.7-0.1,1.3,0,2c0.2,1.9-0.7,2.6-2.6,2.6
			C207.5,399,200,399.1,192.5,399.1z"/>
		<path class="st1" d="M328.8,352c6.8,0,13.7,0.3,20.5-0.1c7.6-0.5,14,5.3,13.3,13.6c-0.3,3.5-0.3,6.8-2.8,9.8
			c-2.9,3.5-6.7,4.6-10.9,4.7c-8.3,0.1-16.7,0.2-25,0c-8-0.2-9.9,1-9.5,9.7c0.1,2.3,0,4.7,0,7c0.1,2.3-1,3.2-3.3,3.3
			c-7.7,0.5-7.7,0.5-7.7-7c0-2,0-4,0-6c0-9.8,4.7-14.7,15-14.9c8.8-0.1,17.6,0,26.5,0c4.3,0,5.3-0.6,6.3-3.4
			c1.1-3.1,0.1-6.6-2.1-8.6c-1.4-1.3-3.1-1.1-4.7-1.1c-11.8,0-23.6,0-35.5,0c-1,0-2-0.1-3,0c-2,0.2-2.7-0.8-2.5-2.7
			c0-0.5,0.1-1,0-1.5c-0.3-2.2,0.6-2.9,2.8-2.9c4.3,0.1,8.7,0,13,0C322.5,352,325.6,352,328.8,352z"/>
		<path class="st1" d="M575,352c4.2,0,8.3,0.1,12.5,0c2.5-0.1,3.3,0.8,3,3.2c0,0.3,0,0.7,0,1c0,3.8,0,3.9-3.7,3.9c-6,0-12,0-18,0
			c-4.8,0-6.2,1.3-6.3,6.2c-0.1,7,0,14,0,21c0,2.9-0.5,5.6-2.4,7.8c-2.2,2.7-5.1,4.1-8.6,4.1c-8.7,0-17.3,0-26,0c-3,0-3-0.1-3-3.6
			c0-3.3,0-3.4,3.2-3.4c6.2,0,12.3,0,18.5,0c5.1,0,7.2-1.9,7.2-7.2c0.1-6.8,0.5-13.7-0.1-20.5c-0.6-6.7,5.1-13,12.7-12.5
			C567.7,352.2,571.3,352,575,352z"/>
		<path class="st1" d="M369.5,380.2c0-5.3,0.2-10.7-0.1-16c-0.3-6.5,5.4-12.3,12.2-12.2c10.8,0.2,21.7,0,32.5,0.1
			c3.3,0,3.3,0.1,3.3,2.8c0.1,3.4-0.4,4.1-3.4,4.2c-8.5,0.1-17,0-25.5,0c-5.6,0-7,1.4-7.1,7c0,10.2,0,20.3,0,30.5
			c0,3.3-0.1,3.4-3.2,3.4c-2.2,0-4.3-0.1-6.5,0c-1.7,0.1-2.3-0.7-2.3-2.4C369.5,391.8,369.5,386,369.5,380.2z"/>
		<path class="st1" d="M289.6,391.3c0,1.3,0,2.7,0,4c-0.1,3.8-0.1,3.9-3.8,3.9c-4.6,0-4.3,0.4-4.3-4.3c0-2.3,0.1-4.7,0-7
			c-0.1-3-0.6-3.7-3.4-3.7c-12-0.1-24-0.1-36,0c-3.1,0-3.5,0.6-3.6,4c-0.1,3,0,6,0,9c0,1.5-0.6,1.9-2.1,2.1
			c-6.7,0.7-6.9,0.5-6.9-6.2c0-1.7-0.1-3.3,0-5c0.3-6.5,4.6-10.9,11-10.9c12.8-0.1,25.6-0.1,38.4,0c7.1,0,10.6,3.6,10.6,10.8
			C289.6,388.9,289.6,390.1,289.6,391.3z"/>
		<path class="st1" d="M259.5,373.1c-6.3,0-12.6-0.2-18.9,0.1c-6.3,0.3-11.6-4.8-11.1-11.1c0.2-2,0-4,0-6c0-4,0-4,4.1-4
			c5.5,0,4.8-0.3,4.8,4.8c0,1.3,0,2.7,0,4c0,4.6,0.4,5.1,5.2,5.1c10.6,0.1,21.3,0.1,31.9,0c4.5,0,5.8-1.4,5.9-6c0-1.3,0-2.7,0-4
			c0.1-4,0.1-4,4.2-4c3.9,0,3.9,0,4,4.2c0,2.2,0,4.3,0,6.5c-0.1,6.5-3.9,10.3-10.6,10.4C272.5,373.1,266,373.1,259.5,373.1z"/>
	</g>
	<g>
		<path class="st2" d="M307.6,260.9c0-5.2,0-10.3,0-15.5c0-1.7-0.4-2.4-2.2-2.4c-6.2,0.2-11.6-2.3-16.8-5.4
			c-6.7-4-13.5-7.7-20.3-11.4c-10.1-5.5-11.6-19.5-4.4-26.2c6.9-6.5,13.5-13.4,20.2-20.1c1.1-1.1,2.2-2,0.7-3.7
			c-4.5-4.8-6-10.9-7.6-17.1c-1.9-7.5-4-15-5.7-22.6c-1.6-7.1,2-15.1,8.5-17.9c2.6-1.1,5.7-1.5,8.7-1.4c8.7,0.1,17.3,0,26,0
			c4.4,0,3.9-0.4,4-3.8c0.1-2.9,1-5.6,2.4-8c5-9,10.3-17.8,15.4-26.8c5.4-9.6,18.9-10,25.7-2.8c6.3,6.7,13,13,19.4,19.5
			c1.6,1.6,2.6,1.9,4.4,0.3c4.3-3.9,9.8-5.4,15.3-6.7c8-1.9,15.9-4.5,24-6.1c9.7-1.9,18.8,5.7,18.6,15c-0.2,9,0,18,0,27
			c0,4.9,0,4.9,4.7,5.4c3.4,0.3,6.5,1.5,9.4,3.2c7.9,4.5,15.8,9.2,23.7,13.8c2.2,1.3,4.2,2.7,5.8,4.7c5.2,6.2,4.4,15.8-1.2,21.4
			c-5.9,5.8-11.8,11.8-17.7,17.7c-1.2,1.2-2.9,2.2-3.3,3.6c-0.5,1.6,1.6,2.7,2.5,3.9c3.7,5,4.7,10.9,6.3,16.6
			c1.7,6.4,3.4,12.8,5.1,19.2c0.8,3.1,0.9,6.3,0.1,9.4c-1.7,6.9-7.6,11.5-15,11.6c-9,0.1-18,0-27,0c-4,0-4.1,0-4.4,4.1
			c-0.3,3.2-1.1,6.2-2.7,9c-4.9,8.7-9.8,17.3-14.9,25.9c-3.6,6.1-9.1,9-16.2,8.8c-4.9-0.1-8.8-2.3-11.7-6
			c-5.4-7-11.6-13.2-17.7-19.6c-0.7-0.8-1.3-1.4-2.4-0.3c-5.4,5.2-12.4,6.8-19.3,8.5c-6.4,1.6-12.8,3.5-19.2,5.1
			c-7.6,1.9-14.3-0.6-18.1-6.2c-1.8-2.7-2.8-5.6-2.8-8.9C307.6,270.6,307.6,265.7,307.6,260.9C307.6,260.9,307.6,260.9,307.6,260.9z
			 M340.6,186.3c-0.2,15.6,11.3,34.2,34,34.4c19.9,0.2,34.6-14.2,34.6-34.2c0-22.9-18.3-34.3-33.9-34.5
			C356.6,151.8,340.4,167.3,340.6,186.3z M436.6,224.7c7.2,0,14.3,0,21.5,0c1.8,0,2.3-0.4,1.7-2.3c-1.5-5.1-2.7-10.3-4.2-15.3
			c-1.1-3.7-2.7-4.9-6.5-4.9c-8.8-0.1-17.6,0-26.5-0.1c-2,0-3,0.6-3.7,2.4c-1.9,4.8-4.5,9.2-7.9,13.2c-2.5,2.9-2.3,3.2,0.5,5.8
			c1.4,1.3,3,1.3,4.6,1.3C422.9,224.7,429.8,224.7,436.6,224.7z M336.9,248.2c0,7.2,0,14.3,0,21.5c0,1.2,0,2.5,1.8,2
			c5.4-1.5,10.9-2.9,16.3-4.5c3.1-0.9,4.4-3.2,4.4-6.4c0-8.8-0.1-17.7,0.1-26.5c0-2.4-1-3.2-2.9-3.9c-4.7-1.8-8.8-4.6-12.7-7.7
			c-3.1-2.6-3.1-2.5-5.7,0.3c-1.3,1.4-1.3,2.9-1.3,4.6C336.9,234.6,336.9,241.4,336.9,248.2z M375.2,135.9c0.8-1.9-0.7-3.3-2.1-4.8
			c-4.3-4.2-8.5-8.5-12.7-12.7c-5.7-5.7-11.3-11.3-17-17c-1.4-1.4-2.2-1.6-3.3,0.4c-2.5,4.5-5.3,8.9-7.8,13.4
			c-1.7,3-1.2,5.6,1.3,8.1c6.3,6.4,12.7,12.7,19,19.1c1.3,1.3,2.3,1.3,3.9,0.6c5.2-2.4,10.7-3.7,16.4-3.9
			C375,139,375.5,138.1,375.2,135.9z M306.9,230.2c2.4,0.1,4-1.2,5.6-2.8c5.9-5.9,11.7-11.9,17.7-17.6c1.8-1.7,1.7-3.1,0.8-5.1
			c-2-4.6-3.1-9.4-3.5-14.4c-0.2-3.6-2.8-5.1-6-3.4c-1,0.5-1.8,1.5-2.6,2.3c-7.9,7.9-15.8,15.8-23.7,23.7c-1.9,1.9-3.7,3.8-5.7,5.6
			c-1.6,1.5-1.2,2.4,0.5,3.3c4.3,2.4,8.7,4.9,13,7.4C304.3,229.9,305.5,230.3,306.9,230.2z M425.8,186.9c1.6,0.6,3-0.4,4.4-1.8
			c2.2-2.3,4.5-4.5,6.7-6.7c7.8-7.8,15.5-15.6,23.3-23.3c1.3-1.3,1.8-2.1-0.3-3.3c-4.4-2.4-8.6-5.1-12.9-7.5c-3.7-2-5.6-1.8-8.5,1
			c-6.4,6.3-12.7,12.7-19.1,19c-1.3,1.3-1.4,2.3-0.7,3.9c2.4,5.2,3.7,10.7,3.8,16.3C422.6,186.8,423.6,187.1,425.8,186.9z
			 M412.7,125.6c0-7.1,0-14.3,0-21.4c0-2.6-0.1-2.7-2.8-2c-4.8,1.2-9.6,2.5-14.4,3.9c-3.7,1.1-4.9,2.7-4.9,6.4
			c-0.1,9,0,17.9-0.1,26.9c0,1.8,0.6,2.6,2.2,3.3c5,2,9.5,4.8,13.5,8.2c2.7,2.3,2.6,2.1,5.1-0.3c1.4-1.4,1.3-2.9,1.3-4.6
			C412.7,139.2,412.7,132.4,412.7,125.6z M418.5,254.7c0.2-1.4-0.4-2.6-1.4-3.6c-6.7-6.7-13.4-13.4-20.1-20.1c-1-1-1.9-1.2-3.1-0.7
			c-5.5,2.4-11.2,4-17.3,3.9c-0.8,0-1.8,0.1-1.8,1.2c-0.1,2.1-0.6,4.2,1.3,6.1c10.3,10.2,20.5,20.4,30.7,30.7c1.2,1.2,2,1.4,3-0.3
			c2.5-4.5,5.2-8.9,7.7-13.3C418.2,257.3,418.7,256.1,418.5,254.7z M313.8,148.9c-7.3,0-14.7,0-22,0c-0.9,0-2.2-0.3-1.8,1.4
			c1.5,5.6,2.9,11.2,4.5,16.8c0.9,2.9,3.2,4,6.2,3.9c8.8-0.1,17.7-0.1,26.5,0c2.3,0,3.1-0.9,3.9-2.8c1.8-4.7,4.6-8.8,7.7-12.7
			c2.3-2.9,2.1-3.1-0.4-5.5c-1.3-1.2-2.7-1.2-4.1-1.2C327.5,148.9,320.7,148.9,313.8,148.9z M374.7,254.9c0,1.6,0.1,2.9,0,4.3
			c-0.1,1.8,0.4,3.1,1.7,4.4c6.9,6.8,13.6,13.6,20.5,20.4c2.3,2.3,3.8,2.3,5.5,0.5c2.6-2.8,2.9-4.9,0.7-7.1c-8-8-16-16-24-24
			c-1.3-1.3-2.6-3.8-4-3.3C374,250.5,374.9,253.4,374.7,254.9z M306.1,186.3c-2.6,0.5-5.4-0.9-7.6,1.4c-6.9,7-13.9,13.9-20.8,20.9
			c-2.2,2.3-2.1,3.9-0.3,5.5c2.9,2.6,4.8,2.8,7,0.5c7.9-7.9,15.8-15.7,23.6-23.7c1.2-1.2,3.8-2.4,3.1-4
			C310.4,185.4,307.8,186.7,306.1,186.3z M375.4,118.1c0,0-0.1,0-0.1,0c0-1.2-0.1-2.3,0-3.5c0.3-2.2-0.6-3.7-2.2-5.3
			c-6.5-6.4-12.9-12.9-19.4-19.4c-2.5-2.5-4.2-2.7-5.9-1c-2.9,2.8-3,4.8-0.5,7.3c7.9,7.9,15.7,15.8,23.6,23.6c1.3,1.2,2.2,3,4.1,3.4
			C375.1,121.6,375.2,119.8,375.4,118.1z M444,187c2.6-0.5,5.5,0.9,7.9-1.6c6.6-6.8,13.4-13.4,20-20.1c2.3-2.4,2.4-4.2,0.5-6
			c-2.9-2.7-4.5-2.8-7-0.3c-7.8,7.7-15.6,15.4-23.3,23.1c-1.4,1.4-4.1,2.8-3.6,4.3C439,187.8,442.1,186.7,444,187z M330.6,252.8
			c0-4.2,0.1-8.3,0-12.5c-0.1-2.9,0.6-5.8-0.5-8.7c-2.5,1.7-4.2,4.2-6.5,6.1c-1.5,1.3-2.1,2.8-2,4.8c0.1,9,0,18,0,26.9
			c0,0.8,0,1.7,0.1,2.5c0.5,2.5,1.7,3.3,4.3,3c3.4-0.4,4.6-1.3,4.6-3.7C330.6,265.1,330.6,259,330.6,252.8z M419.4,121.1
			c0,4.1-0.1,8.3,0,12.4c0.1,2.7-0.7,5.5,0.6,8.1c2.4-1.5,4-3.9,6.1-5.7c1.7-1.5,2.4-3.3,2.3-5.7c-0.1-8.8-0.1-17.6-0.1-26.4
			c0-0.8,0.1-1.7-0.1-2.5c-0.5-2.3-2.1-3.3-4.4-3c-3.5,0.5-4.5,1.3-4.5,3.9C419.4,108.4,419.4,114.8,419.4,121.1z M440.6,231.1
			c-6.3,0-12.7,0-19,0c-0.6,0-1.4-0.3-1.7,0.4c-0.2,0.7,0.6,1.1,1,1.6c1.7,1.6,3.5,3.1,5,4.9c1.5,1.7,3.1,2.1,5.3,2.1
			c8.8-0.1,17.6,0,26.5,0c0.8,0,1.7,0.1,2.5-0.1c2.2-0.4,3.3-1.7,3.2-3.8c-0.2-3.4-1.4-5.1-3.8-5.1C453.3,231,447,231.1,440.6,231.1
			z M309.6,142.2c6,0,11.9,0,17.9,0c0.8,0,2.1,0.1,2.3-0.4c0.4-0.7-0.6-1.3-1.2-1.9c-1.9-1.8-3.9-3.6-5.8-5.4
			c-0.9-0.8-1.8-1.3-3.1-1.3c-9.6,0-19.2,0-28.9,0c-0.3,0-0.7,0-1,0.1c-2.4,0.5-3.5,1.9-3.3,4.1c0.3,3.4,1.3,4.8,4.1,4.8
			C297,142.2,303.3,142.2,309.6,142.2z"/>
		<path class="st1" d="M436.6,224.7c-6.8,0-13.6,0-20.5,0c-1.7,0-3.2,0-4.6-1.3c-2.8-2.5-3-2.8-0.5-5.8c3.4-4,6-8.4,7.9-13.2
			c0.7-1.8,1.7-2.4,3.7-2.4c8.8,0.1,17.6,0,26.5,0.1c3.8,0,5.4,1.2,6.5,4.9c1.5,5.1,2.7,10.3,4.2,15.3c0.6,1.9,0,2.3-1.7,2.3
			C450.9,224.7,443.7,224.7,436.6,224.7z"/>
		<path class="st1" d="M336.9,248.2c0-6.8,0-13.7,0-20.5c0-1.7,0-3.2,1.3-4.6c2.6-2.8,2.6-2.9,5.7-0.3c3.9,3.2,8,6,12.7,7.7
			c1.9,0.7,2.9,1.5,2.9,3.9c-0.2,8.8-0.1,17.7-0.1,26.5c0,3.2-1.3,5.5-4.4,6.4c-5.4,1.6-10.9,3-16.3,4.5c-1.8,0.5-1.8-0.8-1.8-2
			C336.9,262.5,336.9,255.4,336.9,248.2z"/>
		<path class="st1" d="M375.2,135.9c0.3,2.2-0.2,3.2-2.3,3.2c-5.7,0.2-11.2,1.5-16.4,3.9c-1.6,0.7-2.6,0.7-3.9-0.6
			c-6.3-6.4-12.7-12.7-19-19.1c-2.5-2.5-2.9-5.1-1.3-8.1c2.5-4.5,5.3-8.9,7.8-13.4c1.1-1.9,1.9-1.8,3.3-0.4c5.6,5.7,11.3,11.3,17,17
			c4.2,4.2,8.5,8.5,12.7,12.7C374.5,132.5,375.9,133.9,375.2,135.9z"/>
		<path class="st1" d="M306.9,230.2c-1.4,0.1-2.6-0.3-3.8-1c-4.3-2.5-8.6-5-13-7.4c-1.7-0.9-2.2-1.8-0.5-3.3c2-1.8,3.8-3.8,5.7-5.6
			c7.9-7.9,15.8-15.8,23.7-23.7c0.8-0.8,1.6-1.8,2.6-2.3c3.2-1.7,5.7-0.2,6,3.4c0.4,5,1.5,9.8,3.5,14.4c0.9,2.1,1,3.4-0.8,5.1
			c-6,5.8-11.8,11.7-17.7,17.6C310.9,228.9,309.3,230.3,306.9,230.2z"/>
		<path class="st1" d="M425.8,186.9c-2.1,0.2-3.2,0-3.3-2.3c-0.1-5.7-1.4-11.2-3.8-16.3c-0.7-1.6-0.6-2.7,0.7-3.9
			c6.4-6.3,12.7-12.7,19.1-19c2.9-2.9,4.8-3.1,8.5-1c4.4,2.4,8.5,5.1,12.9,7.5c2.1,1.1,1.6,2,0.3,3.3c-7.8,7.7-15.6,15.5-23.3,23.3
			c-2.2,2.2-4.5,4.4-6.7,6.7C428.8,186.5,427.4,187.4,425.8,186.9z"/>
		<path class="st1" d="M412.7,125.6c0,6.8,0,13.6,0,20.4c0,1.6,0.1,3.2-1.3,4.6c-2.4,2.4-2.4,2.6-5.1,0.3c-4.1-3.5-8.6-6.3-13.5-8.2
			c-1.6-0.6-2.3-1.5-2.2-3.3c0.1-9,0-17.9,0.1-26.9c0-3.8,1.2-5.3,4.9-6.4c4.8-1.4,9.6-2.6,14.4-3.9c2.7-0.7,2.8-0.6,2.8,2
			C412.7,111.3,412.7,118.4,412.7,125.6z"/>
		<path class="st1" d="M418.5,254.7c0.2,1.4-0.4,2.6-1,3.8c-2.6,4.5-5.2,8.9-7.7,13.3c-1,1.7-1.8,1.6-3,0.3
			c-10.2-10.3-20.4-20.5-30.7-30.7c-1.9-1.8-1.4-3.9-1.3-6.1c0-1.1,1-1.2,1.8-1.2c6.1,0,11.8-1.6,17.3-3.9c1.2-0.5,2.2-0.3,3.1,0.7
			c6.7,6.7,13.4,13.4,20.1,20.1C418.1,252,418.7,253.2,418.5,254.7z"/>
		<path class="st1" d="M313.8,148.9c6.8,0,13.7,0,20.5,0c1.5,0,2.9,0,4.1,1.2c2.6,2.4,2.7,2.6,0.4,5.5c-3.1,3.9-5.9,8.1-7.7,12.7
			c-0.7,1.9-1.6,2.8-3.9,2.8c-8.8-0.2-17.7-0.1-26.5,0c-3,0-5.3-1-6.2-3.9c-1.7-5.6-3.1-11.2-4.5-16.8c-0.4-1.7,0.9-1.4,1.8-1.4
			C299.2,148.9,306.5,148.9,313.8,148.9z"/>
		<path class="st1" d="M374.7,254.9c0.2-1.5-0.7-4.4,0.4-4.8c1.4-0.5,2.7,2,4,3.3c8,8,16,16,24,24c2.2,2.2,1.9,4.2-0.7,7.1
			c-1.7,1.8-3.2,1.8-5.5-0.5c-6.9-6.8-13.6-13.6-20.5-20.4c-1.3-1.3-1.9-2.6-1.7-4.4C374.8,257.8,374.7,256.5,374.7,254.9z"/>
		<path class="st1" d="M306.1,186.3c1.7,0.4,4.3-0.9,5,0.7c0.7,1.7-1.9,2.8-3.1,4c-7.8,7.9-15.7,15.8-23.6,23.7
			c-2.3,2.2-4.1,2.1-7-0.5c-1.8-1.6-1.9-3.3,0.3-5.5c6.9-7,13.9-13.9,20.8-20.9C300.7,185.4,303.5,186.8,306.1,186.3z"/>
		<path class="st1" d="M375.4,118.1c-0.1,1.8-0.2,3.5-0.4,5.3c-2-0.4-2.9-2.2-4.1-3.4c-7.9-7.8-15.8-15.7-23.6-23.6
			c-2.5-2.5-2.4-4.5,0.5-7.3c1.7-1.7,3.4-1.5,5.9,1c6.5,6.4,12.9,13,19.4,19.4c1.5,1.5,2.4,3.1,2.2,5.3c-0.1,1.1,0,2.3,0,3.5
			C375.3,118.1,375.3,118.1,375.4,118.1z"/>
		<path class="st1" d="M444,187c-2-0.3-5.1,0.8-5.5-0.5c-0.5-1.6,2.2-3,3.6-4.3c7.7-7.8,15.5-15.5,23.3-23.1c2.5-2.5,4.2-2.4,7,0.3
			c1.9,1.7,1.8,3.6-0.5,6c-6.6,6.7-13.4,13.3-20,20.1C449.5,187.9,446.6,186.4,444,187z"/>
		<path class="st1" d="M330.6,252.8c0,6.2,0,12.3,0,18.5c0,2.5-1.2,3.4-4.6,3.7c-2.6,0.3-3.8-0.6-4.3-3c-0.2-0.8-0.1-1.7-0.1-2.5
			c0-9,0.1-18,0-26.9c0-2,0.5-3.5,2-4.8c2.3-1.9,4-4.4,6.5-6.1c1,2.8,0.4,5.8,0.5,8.7C330.7,244.5,330.6,248.7,330.6,252.8z"/>
		<path class="st1" d="M419.4,121.1c0-6.3,0-12.6,0-18.9c0-2.6,1.1-3.4,4.5-3.9c2.3-0.3,3.9,0.8,4.4,3c0.2,0.8,0.1,1.7,0.1,2.5
			c0,8.8-0.1,17.6,0.1,26.4c0,2.4-0.6,4.2-2.3,5.7c-2.1,1.9-3.7,4.2-6.1,5.7c-1.2-2.6-0.5-5.4-0.6-8.1
			C419.3,129.4,419.4,125.2,419.4,121.1z"/>
		<path class="st1" d="M440.6,231.1c6.3,0,12.7,0,19,0c2.4,0,3.6,1.7,3.8,5.1c0.1,2-1,3.4-3.2,3.8c-0.8,0.1-1.7,0.1-2.5,0.1
			c-8.8,0-17.7-0.1-26.5,0c-2.1,0-3.8-0.4-5.3-2.1c-1.5-1.8-3.3-3.2-5-4.9c-0.4-0.4-1.3-0.8-1-1.6c0.2-0.8,1.1-0.4,1.7-0.4
			C428,231,434.3,231.1,440.6,231.1z"/>
		<path class="st1" d="M309.6,142.2c-6.3,0-12.6,0-18.9,0c-2.8,0-3.8-1.3-4.1-4.8c-0.2-2.3,0.9-3.6,3.3-4.1c0.3-0.1,0.7-0.1,1-0.1
			c9.6,0,19.2,0,28.9,0c1.3,0,2.2,0.5,3.1,1.3c1.9,1.8,3.9,3.6,5.8,5.4c0.6,0.5,1.6,1.1,1.2,1.9c-0.2,0.4-1.5,0.4-2.3,0.4
			C321.6,142.2,315.6,142.2,309.6,142.2z"/>
	</g>
</g>
</svg>
